<svg xmlns="http://www.w3.org/2000/svg" viewBox="0 0 181 612"><defs><style>.cls-1{fill:#2bb673;}.cls-2{fill:#231f20;}</style></defs><g id="Layer_2" data-name="Layer 2"><g id="green_guy" data-name="green guy"><path class="cls-1" d="M90.5,0h0A90.5,90.5,0,0,1,181,90.5V604.23a7.77,7.77,0,0,1-7.77,7.77H7.77A7.77,7.77,0,0,1,0,604.23V90.5A90.5,90.5,0,0,1,90.5,0Z"/><circle class="cls-2" cx="95.31" cy="80.67" r="3.97"/><circle class="cls-2" cx="125.89" cy="68.5" r="3.97"/><path class="cls-2" d="M66.21,103.94a75.58,75.58,0,0,0,37.79.26,74.64,74.64,0,0,0,42.93-30A3.78,3.78,0,0,0,145.58,69a3.82,3.82,0,0,0-5.13,1.34c-.37.55-.76,1.09-1.15,1.63-.16.21-.32.42-.47.64-.77,1,.41-.52-.39.5s-1.67,2.06-2.55,3.06a69.24,69.24,0,0,1-5.31,5.39c-.93.85-1.88,1.68-2.86,2.48-.46.38-.92.75-1.4,1.12l-.34.26-1.13.82a69.62,69.62,0,0,1-6.37,4.09A66.44,66.44,0,0,1,87.35,99,65.94,65.94,0,0,1,68.2,96.7a3.75,3.75,0,0,0-2,7.24Z"/></g></g></svg>