<svg xmlns="http://www.w3.org/2000/svg" viewBox="0 0 181 612"><defs><style>.cls-1{fill:#2bb673;}.cls-2{fill:#231f20;}</style></defs><g id="Layer_2" data-name="Layer 2"><g id="green_guy" data-name="green guy"><path class="cls-1" d="M90.5,0h0A90.5,90.5,0,0,1,181,90.5V604.23a7.77,7.77,0,0,1-7.77,7.77H7.77A7.77,7.77,0,0,1,0,604.23V90.5A90.5,90.5,0,0,1,90.5,0Z"/><circle class="cls-2" cx="97.31" cy="85.67" r="3.97"/><circle class="cls-2" cx="135.89" cy="84.5" r="3.97"/><path class="cls-2" d="M71.34,96.21a75.57,75.57,0,0,0,34.33,10.59,74.68,74.68,0,0,0,51.48-16.94c1.57-1.28,1.33-4,0-5.3a3.82,3.82,0,0,0-5.3,0,67.65,67.65,0,0,1-28.06,13.38A66.69,66.69,0,0,1,92.13,97a65.13,65.13,0,0,1-17-7.3,3.75,3.75,0,1,0-3.79,6.48Z"/></g></g></svg>